<svg width="469" height="102" viewBox="0 0 469 102" fill="none" xmlns="http://www.w3.org/2000/svg">
<path d="M412.296 17.992V26.208H404.184V68.12H412.296V76.388H394.616V17.992H412.296ZM447.597 76.388H429.917V68.12H438.029V26.208H429.917V17.992H447.597V76.388Z" fill="#00A3FF"/>
<path d="M15.378 64.288H30.162V73H4.092V26.668H15.378V64.288ZM49.9331 26.668V54.388C49.9331 57.16 50.6151 59.294 51.9791 60.79C53.3431 62.286 55.3451 63.034 57.9851 63.034C60.6251 63.034 62.6491 62.286 64.0571 60.79C65.4651 59.294 66.1691 57.16 66.1691 54.388V26.668H77.4551V54.322C77.4551 58.458 76.5751 61.956 74.8151 64.816C73.0551 67.676 70.6791 69.832 67.6871 71.284C64.7391 72.736 61.4391 73.462 57.7871 73.462C54.1351 73.462 50.8571 72.758 47.9531 71.35C45.0931 69.898 42.8271 67.742 41.1551 64.882C39.4831 61.978 38.6471 58.458 38.6471 54.322V26.668H49.9331ZM86.7663 49.768C86.7663 45.192 87.7563 41.122 89.7363 37.558C91.7163 33.95 94.4663 31.156 97.9863 29.176C101.55 27.152 105.576 26.14 110.064 26.14C115.564 26.14 120.272 27.592 124.188 30.496C128.104 33.4 130.722 37.36 132.042 42.376H119.634C118.71 40.44 117.39 38.966 115.674 37.954C114.002 36.942 112.088 36.436 109.932 36.436C106.456 36.436 103.64 37.646 101.484 40.066C99.3283 42.486 98.2503 45.72 98.2503 49.768C98.2503 53.816 99.3283 57.05 101.484 59.47C103.64 61.89 106.456 63.1 109.932 63.1C112.088 63.1 114.002 62.594 115.674 61.582C117.39 60.57 118.71 59.096 119.634 57.16H132.042C130.722 62.176 128.104 66.136 124.188 69.04C120.272 71.9 115.564 73.33 110.064 73.33C105.576 73.33 101.55 72.34 97.9863 70.36C94.4663 68.336 91.7163 65.542 89.7363 61.978C87.7563 58.414 86.7663 54.344 86.7663 49.768ZM171.096 64.816H153.804L151.032 73H139.218L155.982 26.668H169.05L185.814 73H173.868L171.096 64.816ZM168.192 56.104L162.45 39.142L156.774 56.104H168.192ZM210.98 73.462C207.592 73.462 204.556 72.912 201.872 71.812C199.188 70.712 197.032 69.084 195.404 66.928C193.82 64.772 192.984 62.176 192.896 59.14H204.908C205.084 60.856 205.678 62.176 206.69 63.1C207.702 63.98 209.022 64.42 210.65 64.42C212.322 64.42 213.642 64.046 214.61 63.298C215.578 62.506 216.062 61.428 216.062 60.064C216.062 58.92 215.666 57.974 214.874 57.226C214.126 56.478 213.18 55.862 212.036 55.378C210.936 54.894 209.352 54.344 207.284 53.728C204.292 52.804 201.85 51.88 199.958 50.956C198.066 50.032 196.438 48.668 195.074 46.864C193.71 45.06 193.028 42.706 193.028 39.802C193.028 35.49 194.59 32.124 197.714 29.704C200.838 27.24 204.908 26.008 209.924 26.008C215.028 26.008 219.142 27.24 222.266 29.704C225.39 32.124 227.062 35.512 227.282 39.868H215.072C214.984 38.372 214.434 37.206 213.422 36.37C212.41 35.49 211.112 35.05 209.528 35.05C208.164 35.05 207.064 35.424 206.228 36.172C205.392 36.876 204.974 37.91 204.974 39.274C204.974 40.77 205.678 41.936 207.086 42.772C208.494 43.608 210.694 44.51 213.686 45.478C216.678 46.49 219.098 47.458 220.946 48.382C222.838 49.306 224.466 50.648 225.83 52.408C227.194 54.168 227.876 56.434 227.876 59.206C227.876 61.846 227.194 64.244 225.83 66.4C224.51 68.556 222.574 70.272 220.022 71.548C217.47 72.824 214.456 73.462 210.98 73.462ZM236.207 49.768C236.207 45.192 237.197 41.122 239.177 37.558C241.157 33.95 243.907 31.156 247.427 29.176C250.991 27.152 255.017 26.14 259.505 26.14C265.005 26.14 269.713 27.592 273.629 30.496C277.545 33.4 280.163 37.36 281.483 42.376H269.075C268.151 40.44 266.831 38.966 265.115 37.954C263.443 36.942 261.529 36.436 259.373 36.436C255.897 36.436 253.081 37.646 250.925 40.066C248.769 42.486 247.691 45.72 247.691 49.768C247.691 53.816 248.769 57.05 250.925 59.47C253.081 61.89 255.897 63.1 259.373 63.1C261.529 63.1 263.443 62.594 265.115 61.582C266.831 60.57 268.151 59.096 269.075 57.16H281.483C280.163 62.176 277.545 66.136 273.629 69.04C269.713 71.9 265.005 73.33 259.505 73.33C255.017 73.33 250.991 72.34 247.427 70.36C243.907 68.336 241.157 65.542 239.177 61.978C237.197 58.414 236.207 54.344 236.207 49.768ZM320.537 64.816H303.245L300.473 73H288.659L305.423 26.668H318.491L335.255 73H323.309L320.537 64.816ZM317.633 56.104L311.891 39.142L306.215 56.104H317.633ZM385.105 73H373.819L354.943 44.422V73H343.657V26.668H354.943L373.819 55.378V26.668H385.105V73Z" fill="white"/>
</svg>
