<?xml version="1.0" standalone="no"?>
<svg width="800" height="800" xmlns="http://www.w3.org/2000/svg" id="stage-svg" xmlns:xlink="http://www.w3.org/1999/xlink" preserveAspectRatio="none" viewBox="0 0 385 385"><g transform="translate(0 0)"><g transform=""><defs><path fill="#FFD3A8" d="M191.5 95.8q0-39.7-28.05-67.75-16.2-16.2-36.3-23.05-14.7-5-31.4-5t-31.4 5q-20.1 6.85-36.3 23.05Q0 56.1 0 95.8q0 32.25 18.5 56.85l.05.05q.6.75 1.2 1.55l1 1.2L28 163.5q0 .05.05.05l.7.7q3.5 3.4 7.15 6.4v.05l-.05-.05q-5.81 7.718-10.6 17.75-.078.183-.2.35l-.3.7q-.06.17-.15.35-.117.253-.25.5l-2.6 6.15q-5.345 13.608-8.3 30.1-.05.2-.05.4-.15 2.45.15 4.85Q15.7 245.9 31 249.35q.2.05.45.1l.05-.05q.15.05.25.05.2.6.4 1.15.4.95 1.1 1.75 0 .05.05.1v19.45q-3.9.7-7.8 2.5-.6.267-1.2.55-.94.67 0 .8h143.25q1 0 0-.6-.775-.405-1.55-.75-3.9-1.8-7.8-2.5v-19.45q.05-.05.05-.1.7-.8 1.1-1.75.2-.55.4-1.15.1 0 .25-.05l.05.05q.25-.05.45-.1 15.3-3.45 17.45-17.55.3-2.4.15-4.85 0-.2-.05-.4-3.7-20.65-11.15-36.75-4.8-10.45-11.15-18.95h-.05q0-.1-.1-.2 3.65-3 7.15-6.4l.7-.7q.05 0 .05-.05l7.25-8.05 1-1.2q.6-.8 1.2-1.55l.05-.05q18.5-24.6 18.5-56.85z" id="SkiSki001__Symbol_10_0_Layer0_0_FILL"/><path fill="#F7BE86" d="M-36.05 227.75h-.2l-3.9.15-1.3.1q-8.5.6-13.15 1.65-4.7 1-5.35 1.3-.15.05-.25.1 8-1.3 16.1-1.8.3-.05.65-.05l2-.1q.2-.05.35-.05h.3q15.4-.65 30.05 2l4.15.7q1.15.2 2.3.45 1.75.35 3.45.75l.3.1q.1 0 .2.05.15 0 .3.05-.4-.15-.8-.25-1.7-.6-3.45-1.05-.55-.15-1.05-.3-.15-.05-.25-.05-10.8-3-22-3.6-.4-.05-.8-.05-.55-.05-1.15-.05l-6.5-.05m3.4-52.2q3.05 1.2 6.25 0 1.6-1.65.35-3.6-.1-.15-.15-.25-3.05-1-6.9 0-.5.7-.6 1.4-.2 1.1.8 2.25.1.1.25.2M3.2 203.7q-1.25-1.15-2.25 0-.05.25 0 .55.25 1.6.15 3.25l.1.05q.7.3 1.05-.35l.1-.2q.15-.45.3-.85.25-.8.4-1.55.05-.15.05-.3l.1-.6m55.4 25.95q-4.65-1.05-13.15-1.65l-1.3-.1-3.9-.15h-.2l-6.5.05q-.6 0-1.15.05-.4 0-.8.05-11.2.6-22 3.6-.1 0-.25.05-.5.15-1.05.3-1.75.45-3.45 1.05-.4.1-.8.25.15-.05.3-.05.1-.05.2-.05l.3-.1q1.7-.4 3.45-.75 1.15-.25 2.3-.45l4.15-.7q14.65-2.65 30.05-2h.3q.15 0 .35.05l2 .1q.35 0 .65.05 8.1.5 16.1 1.8-.1-.05-.25-.1-.65-.3-5.35-1.3M29.55 173.1q-.2 1.1.8 2.25.1.1.25.2 3.05 1.2 6.25 0 1.6-1.65.35-3.6-.1-.15-.15-.25-3.05-1-6.9 0-.5.7-.6 1.4z" id="SkiSki001__hll_0_Layer0_0_FILL"/><path fill="#DE9957" d="M-54 165.45q-.05.05-.05.1l-4.3 21.85q-.45 2.1-.85 4.05l-.1.6q-.2.8-.35 1.6-1.5 7.35-2.3 12.15-.75 4.4.45-.6.4-2.5 1.45-6.25.1-.6.25-1.25.7-3.15 1.3-5.65.65-3.05 1.15-5.1h.05l-.05-.05v-.05q.2-.9.35-1.55.2-.95.4-1.55v-.05q0-.15.05-.25.15-.75.2-.85l3.25-16.8.05-.05q0-.25-.1-.4-.1-.2-.3-.2-.2-.05-.3 0-.05 0-.05.05-.05 0-.1.05t-.1.2m81.8 53.1q5.828-.808 11.3-1.95-.15 0-.3.05-.95.05-1.9.15-.75.05-1.5.15-13.1 1.2-26.3 1.45-4.5.1-9 .1-17-.1-34.1-1.8-.65-.1-1.2-.15 5.808 1.176 11.85 2 11.28 1.525 23.45 1.85h.55v.1l1.4 12.2v-.4l.05.4 1.4-12.2v-.1h.05q.15 0 .35.05l5.2-.2q9.762-.455 18.7-1.7m30.1-53.2l-.05-.05q-.15-.05-.35 0-.2 0-.3.2-.1.15-.05.4l3.25 16.85q.1.2 1.05 4.3v.05q.45 2 1.1 4.95.55 2.4 1.2 5.4l.1.4q.25 1.2.5 2.25 1 3.35 1.35 5.75 1.05 4.3.3.1-.9-5.3-2.65-13.9-.4-2.15-.9-4.5L58.1 165.7v-.1q-.1-.2-.2-.25m2.25-34.1q-1.35 1.05-2.8 2.1l-1.55 1.15q-20.35 14.1-45.8 16l-1.1.05q-3.35.2-6.8.2h-.2q-3.45 0-6.8-.2l-1.1-.05q-25.45-1.9-45.8-16l-1.55-1.15q-1.45-1.05-2.8-2.1l-1.15-.9q10.019 8.81 21.45 14.1 17.928 7.84 37.75 7.85h.2q19.823-.01 37.75-7.85 11.45-5.3 21.45-14.05l-1.15.85z" id="SkiSki001__hdd_0_Layer0_0_FILL"/><filter id="SkiSki001__Filter_1" x="-20%" y="-20%" width="140%" height="140%" color-interpolation-filters="sRGB"><feColorMatrix in="SourceGraphic" values="1 0 0 0 0 0 1 0 0 0 0 0 1 0 0 0 0 0 0.75 0" result="result1"/></filter></defs><use xmlns:xlink="http://www.w3.org/1999/xlink" xlink:href="#SkiSki001__Symbol_10_0_Layer0_0_FILL" transform="translate(96.75 58)" id="SkiSki001__col1n"/><use xmlns:xlink="http://www.w3.org/1999/xlink" xlink:href="#SkiSki001__hll_0_Layer0_0_FILL" transform="matrix(1.00052 0 0 1 190.5 98.75)" id="SkiSki001__col1d"/><use filter="url(#SkiSki001__Filter_1)" xmlns:xlink="http://www.w3.org/1999/xlink" xlink:href="#SkiSki001__hdd_0_Layer0_0_FILL" transform="matrix(1.00052 0 0 1 190.5 98.75)" id="SkiSki001__col1s"/></g></g><g transform="translate(0 0)"><g transform=""><defs><path fill="#C69C5D" d="M125.7 0q-.2.05-.35.1Q62.1 12.35.85.2.6.1.35.1.2.05.1.05.05 0 0 0q0 .05.05.1v19.5q.35-.1.7-.15h.1q32.4-5.15 62 2.9 29.7-8.1 62.3-2.85.15 0 .3.05.15 0 .25.05V.05l.05-.05h-.05z" id="LegPan001__Symbol_1_0_Layer0_0_FILL"/></defs><use xmlns:xlink="http://www.w3.org/1999/xlink" xlink:href="#LegPan001__Symbol_1_0_Layer0_0_FILL" transform="translate(129.65 310.25)" id="LegPan001__col1n"/></g></g><g transform="translate(0 0)"><g transform=""><defs><path fill="#666666" d="M146.9 7.7q-9-5.25-23.3-6.95-13.1-1.45-27.4 0-7 .8-14.2 2.45l-8.3 2.05-8.3-2.05Q58.2 1.55 51.2.75 36.9-.7 23.8.75 9.1 2.5 0 8h147.4l-.5-.3z" id="LegSho001__Symbol_2_0_Layer0_0_FILL"/></defs><use xmlns:xlink="http://www.w3.org/1999/xlink" xlink:href="#LegSho001__Symbol_2_0_Layer0_0_FILL" transform="translate(118.8 326)" id="LegSho001__col1n"/></g></g><g transform="translate(0 0)"><g transform=""><defs><path fill="#666666" d="M146.5 19.1q-1.8-3.95-3.85-7.6-.95-1.75-1.95-3.4-.1-.1-.15-.2-.6-.95-1.15-1.9-2-3.1-4.2-6l-1.85 1.4-.6.5q-1.05.8-2.2 1.6L129 4.65q-20.4 14.1-45.85 16l-1.1.05q-3.1.2-6.3.2h-1.2q-3.2 0-6.3-.2l-1.1-.05q-25.45-1.9-45.85-16L19.75 3.5q-.25-.2-.5-.35-1.2-.9-2.3-1.75L15.1 0q-.1.05-.15.15-3.05 4.1-5.7 8.55-.3.5-.6 1.05-.55.9-1.05 1.85-2 3.65-3.8 7.5-1.4 3-2.65 6.15-.4 1.05-.8 2.15-.2.45-.35.95l18.95 7.05v.05l-2.7 14q-.55 2.7-1.1 5.45L11.7 69.2q-1 3.9-1.95 7.8l-.95 3.6v.25l-.05.05h.2q.25.1.5.15H9.6q2.05.5 4.15.95 61.75 14 122.7 0 2.1-.45 4.15-.95H140.75q.25-.05.5-.15h.2l-.05-.2v-.1l-6-24.25q-.65-3.1-1.3-6.15l-2.85-14.75 19.1-7.1q-.2-.5-.35-.95-.45-1.1-.85-2.15-1.25-3.15-2.65-6.15z" id="ShiSho020__Symbol_28_0_Layer0_0_FILL"/></defs><use xmlns:xlink="http://www.w3.org/1999/xlink" xlink:href="#ShiSho020__Symbol_28_0_Layer0_0_FILL" transform="translate(117.35 228.6)" id="ShiSho020__col1n"/></g></g><g transform=""><g transform=""><defs><path fill="#FFD3A8" d="M34.65 11q0-3.2-2.25-5.45-1.65-1.65-3.8-2.1-.3-.05-.55-.1-.25-.05-.5-.05-.15-.05-.35 0-.15-.05-.35 0h-.4q-.7.05-1.25.15-.15.05-.35.1Q20.7-.05 15.1 0 9.35-.05 5.2 3.65q-.05.05-.1.15-.2.1-.35.25-.05 0-.05.05l-.05.05-.2.2q-.25.25-.45.5-.05 0-.05.05l-.05.05-.3.3Q0 9.4 0 15q0 6.2 4.45 10.6Q8.85 30 15.1 30q2.9 0 5.4-.95.1-.05.2-.05.05-.05.15-.1h.05q.05-.05.15-.1.4-.15.75-.35l.8-.4q.1-.05.15-.1l.1-.05q1.5-.95 2.9-2.3 3.25-3.25 4.1-7.45.05-.05.1-.05l.3-.1q1.15-.55 2.15-1.55 2.25-2.25 2.25-5.45m135.6-6.85V4.1l-.05-.05q-.2-.15-.35-.25-.05-.1-.1-.15-4.2-3.7-9.9-3.65-5.65-.05-9.7 3.55-.2-.05-.35-.1-.4-.1-.8-.1l-.8-.05q-.2-.05-.35 0-.25-.05-.4 0-.25 0-.45.05h-.05q-.25.05-.45.1-2.2.45-3.85 2.1-2.3 2.25-2.3 5.45t2.3 5.45q.95 1 2.15 1.55l.3.1q.85 4.25 4.1 7.5 1.35 1.35 2.9 2.3.05 0 .1.05t.15.1q.35.2.75.4.35.2.75.35l.2.1h.05q.05.05.15.1.1 0 .2.05 2.5.95 5.4.95 6.25 0 10.65-4.4t4.45-10.6q-.05-5.6-3.65-9.75-.15-.15-.25-.3l-.1-.1q-.25-.25-.45-.5-.15-.1-.25-.2z" id="BodHan001__Symbol_2_0_Layer0_0_FILL"/><path fill="#F7BE86" d="M15.5 7.75q0-3.2-2.25-5.45Q11.6.65 9.45.2 9.15.15 8.9.1 8.65.05 8.4.05q-.15-.05-.35 0Q7.9 0 7.7.05h-.4Q6.6.1 6.05.2 5.9.25 5.7.3q-1.95.45-3.45 2Q0 4.55 0 7.75t2.25 5.45q1.7 1.7 3.95 2.1l1.5.15h.1l.75-.05q1.15-.1 2.15-.5.05-.05.1-.05l.3-.1q1.15-.55 2.15-1.55 2.25-2.25 2.25-5.45M12.45 3q1.95 1.95 1.95 4.75 0 2.75-1.95 4.7-.85.9-1.85 1.4-1 .45-2.05.55l-.75.05h-.1l-1.3-.15q-1.9-.4-3.35-1.85-2-1.95-1.95-4.7Q1.05 4.95 3.05 3q1.45-1.45 3.3-1.8.5-.1 1-.15H7.8q.4 0 .85.1 2.15.25 3.8 1.85m124.3 4.75q-.05-3.2-2.3-5.45-1.5-1.55-3.4-2H131q-.2-.05-.35-.1-.4-.1-.8-.1l-.8-.05q-.2-.05-.35 0-.25-.05-.4 0-.25 0-.45.05h-.05q-.25.05-.45.1-2.2.45-3.85 2.1-2.3 2.25-2.3 5.45t2.3 5.45q.95 1 2.15 1.55l.3.1q1 .4 2.25.55l.75.05h.1l1.5-.15q2.2-.4 3.9-2.1 2.25-2.25 2.3-5.45M133.7 3q1.95 1.95 1.95 4.75 0 2.75-1.95 4.7-1.45 1.45-3.35 1.85l-1.3.15h-.1l-.75-.05q-1.1-.1-2-.55-1.05-.5-1.95-1.4-1.95-1.95-1.9-4.7-.05-2.8 1.9-4.75 1.65-1.6 3.8-1.85h.05q.4-.1.85-.1H129.4q.5.05 1 .15 1.85.35 3.3 1.8z" id="BodHan001__Symbol_1_0_Layer0_0_FILL"/></defs><use xmlns:xlink="http://www.w3.org/1999/xlink" xlink:href="#BodHan001__Symbol_2_0_Layer0_0_FILL" transform="translate(105.05 280.6)" id="BodHan001__col1n"/><use xmlns:xlink="http://www.w3.org/1999/xlink" xlink:href="#BodHan001__Symbol_1_0_Layer0_0_FILL" transform="translate(124.2 283.85)" id="BodHan001__col1d"/></g></g><g transform=""><g transform=""><defs><path fill="#000000" d="M27.95.55q-.15-.35-.5-.5-.4-.15-.75.05Q14.55 5.7 1.35.1.95-.1.6.1.25.2.1.6q-.2.35 0 .7.1.35.5.55Q14.65 7.8 27.5 1.8q.35-.15.5-.5.15-.4-.05-.75z" id="FacMou001__Symbol_1_0_Layer0_0_FILL"/></defs><g id="FacMou001__col1n" transform="translate(178.5 224.8)"><use xmlns:xlink="http://www.w3.org/1999/xlink" xlink:href="#FacMou001__Symbol_1_0_Layer0_0_FILL" id="FacMou001__col1n_FL"/></g></g></g><g transform=""><g transform=""><defs><path fill="#FFFFFF" d="M105.35 24.4q-1.2-4.7-3.8-8.85-1.7-2.75-4.05-5.3-.15-.2-.3-.35Q88.85.9 77.85.1 66.8-.75 59.55 7q-5.35 5.75-6.3 13.7-1-7.95-6.35-13.7Q39.65-.75 28.65.1 17.6.9 9.25 9.9q-.3.3-.55.65l-.3.3q-5 5.65-7 12.4Q.35 26.8.1 30.65q-.2 2.7.05 5.15.25 3.15 1.25 6 1.65 4.65 5.15 8.4 7.25 7.75 18.25 6.9 11.05-.8 19.4-9.75 7.8-8.4 9.05-19.25 1.2 10.85 9 19.25 8.35 8.95 19.4 9.75 11 .85 18.25-6.9 3.75-4 5.35-9.15.75-2.4 1-5.05.3-2.6.1-5.4-.2-3.2-1-6.2z" id="FacEye001__Symbol_1_0_Layer0_0_FILL"/><path fill="#000000" d="M3.4 6.65Q4.8 6.6 5.8 5.6q1-.95 1-2.35 0-1.35-1-2.35-1-.95-2.4-.9Q1.95-.05 1 .9q-1 1-1 2.35 0 1.4 1 2.35.95 1 2.4 1.05m32.05 0q1.4-.05 2.35-1.05 1-.95 1-2.35 0-1.35-1-2.35-.95-.95-2.35-.9Q34-.05 33 .9q-1 1-1 2.35 0 1.4 1 2.35 1 1 2.45 1.05z" id="FacEye001__Symbol_4_0_Layer0_0_FILL"/></defs><g id="FacEye001__col1n" transform="translate(139.3 136.2)"><use xmlns:xlink="http://www.w3.org/1999/xlink" xlink:href="#FacEye001__Symbol_1_0_Layer0_0_FILL" id="FacEye001__col1n_FL"/></g><g id="FacEye001__col2n" transform="translate(173 163.45)"><use xmlns:xlink="http://www.w3.org/1999/xlink" xlink:href="#FacEye001__Symbol_4_0_Layer0_0_FILL" id="FacEye001__col2n_FL"/></g></g></g><g transform=""><g transform=""><defs><path fill="#434343" d="M0 66.7q0 .35.25.55.2.25.55.25.35 0 .6-.25.2-.2.2-.55 0-.35-.2-.6-.25-.2-.6-.2t-.55.2q-.25.25-.25.6m7.45-24.9q0 .35.25.55.2.25.55.25.35 0 .6-.25.2-.2.2-.55 0-.35-.2-.6-.25-.2-.6-.2t-.55.2q-.25.25-.25.6m12.35-10q-.25.25-.25.6t.25.55q.2.25.55.25.35 0 .6-.25.2-.2.2-.55 0-.35-.2-.6-.25-.2-.6-.2t-.55.2M73.3 43q0 .35.25.55.2.25.55.25.35 0 .6-.25.2-.2.2-.55 0-.35-.2-.6-.25-.2-.6-.2t-.55.2q-.25.25-.25.6M55 28.95q-.35 0-.55.2-.25.25-.25.6t.25.55q.2.25.55.25.35 0 .6-.25.2-.2.2-.55 0-.35-.2-.6-.25-.2-.6-.2m3.75-15.05q0 .35.25.55.2.25.55.25.35 0 .6-.25.2-.2.2-.55 0-.35-.2-.6-.25-.2-.6-.2t-.55.2q-.25.25-.25.6m-5.9-8.2q-.35 0-.55.2-.25.25-.25.6t.25.55q.2.25.55.25.35 0 .6-.25.2-.2.2-.55 0-.35-.2-.6-.25-.2-.6-.2M73.95 22q.35 0 .6-.25.2-.2.2-.55 0-.35-.2-.6-.25-.2-.6-.2t-.55.2q-.25.25-.25.6t.25.55q.2.25.55.25M72.7.2q-.25.25-.25.6t.25.55q.2.25.55.25.35 0 .6-.25.2-.2.2-.55 0-.35-.2-.6-.25-.2-.6-.2t-.55.2m7.25 4.5q-.25-.2-.6-.2t-.55.2q-.25.25-.25.6t.25.55q.2.25.55.25.35 0 .6-.25.2-.2.2-.55 0-.35-.2-.6m33.25 31.5q-.25.25-.25.6t.25.55q.2.25.55.25.35 0 .6-.25.2-.2.2-.55 0-.35-.2-.6-.25-.2-.6-.2t-.55.2m6.1-13.5q-.35 0-.55.2-.25.25-.25.6t.25.55q.2.25.55.25.35 0 .6-.25.2-.2.2-.55 0-.35-.2-.6-.25-.2-.6-.2M102 1.95q-.35 0-.55.2-.25.25-.25.6t.25.55q.2.25.55.25.35 0 .6-.25.2-.2.2-.55 0-.35-.2-.6-.25-.2-.6-.2m55.5 35.5q-.25-.2-.6-.2t-.55.2q-.25.25-.25.6t.25.55q.2.25.55.25.35 0 .6-.25.2-.2.2-.55 0-.35-.2-.6M139 16.7q0 .35.25.55.2.25.55.25.35 0 .6-.25.2-.2.2-.55 0-.35-.2-.6-.25-.2-.6-.2t-.55.2q-.25.25-.25.6m-15.45-4.9q-.35 0-.55.2-.25.25-.25.6t.25.55q.2.25.55.25.35 0 .6-.25.2-.2.2-.55 0-.35-.2-.6-.25-.2-.6-.2m51.2 68.8q0-.35-.2-.6-.25-.2-.6-.2t-.55.2q-.25.25-.25.6t.25.55q.2.25.55.25.35 0 .6-.25.2-.2.2-.55m-1.35-22.5q-.35 0-.55.2-.25.25-.25.6t.25.55q.2.25.55.25.35 0 .6-.25.2-.2.2-.55 0-.35-.2-.6-.25-.2-.6-.2z" id="HaiSho001__Symbol_1n_0_Layer0_0_FILL"/><path fill="#252525" fill-opacity="0.251" d="M191.6 95.8q0-39.7-28.05-67.75Q135.5 0 95.8 0T28.05 28.05Q0 56.1 0 95.8q0 3.75.25 7.4l.1.05q.1-.1.25-.2v.65h.1q15.4-6.2 19.25-33.6 8.45-36.35 28.5-26.45 24.15 9.9 47.4 10.3 23.25-.4 47.4-10.3 20.05-9.9 28.5 26.45 3.85 27.25 19.1 33.55.05 0 .15.05.15.05.3.05.3-3.9.3-7.95z" id="HaiSho001__Symbol_1d_0_Layer0_0_FILL"/></defs><g id="HaiSho001__col1n" transform="translate(106.45 63.2)"><use xmlns:xlink="http://www.w3.org/1999/xlink" xlink:href="#HaiSho001__Symbol_1n_0_Layer0_0_FILL" id="HaiSho001__col1n_FL"/></g><g id="HaiSho001__col1d" transform="translate(96.65 58)"><use xmlns:xlink="http://www.w3.org/1999/xlink" xlink:href="#HaiSho001__Symbol_1d_0_Layer0_0_FILL" id="HaiSho001__col1d_FL"/></g></g></g><g transform=""><g transform=""><defs><path fill="#8FAFCD" d="M2.6 2.6q.45-.45.45-1.05 0-.65-.45-1.1Q2.1 0 1.5 0 .9 0 .45.45 0 .9 0 1.55q0 .6.45 1.05.45.45 1.05.45.6 0 1.1-.45z" id="AccGla001__Symbol_4_0_Layer0_0_FILL"/><path fill="#C1D2E2" fill-opacity="0.502" d="M105.35 24.4q-1.2-4.7-3.8-8.85-1.7-2.75-4.05-5.3-.15-.2-.3-.35Q88.85.9 77.85.1 66.8-.75 59.55 7q-5.35 5.75-6.3 13.7-1-7.95-6.35-13.7Q39.65-.75 28.65.1 17.6.9 9.25 9.9q-.3.3-.55.65l-.3.3q-5 5.65-7 12.4Q.35 26.8.1 30.65q-.2 2.7.05 5.15.25 3.15 1.25 6 1.65 4.65 5.15 8.4 7.25 7.75 18.25 6.9 11.05-.8 19.4-9.75 7.8-8.4 9.05-19.25 1.2 10.85 9 19.25 8.35 8.95 19.4 9.75 11 .85 18.25-6.9 3.75-4 5.35-9.15.75-2.4 1-5.05.3-2.6.1-5.4-.2-3.2-1-6.2z" id="AccGla001__Symbol_2_0_Layer0_0_FILL"/><path fill="#252525" d="M192.9 14.5q-.05-.45-.45-.65-.35-.2-.75-.1l-1.1.25h-.05l-41.3 10.9q-.2-.5-.4-1.2-2.3-7.25-7.85-13.25v-.05Q132.4.95 120.9.1q-11.45-.9-19.1 7.4-3.6 3.85-5.3 8.85-1.75-5-5.35-8.85Q83.5-.8 72.05.1q-11.5.85-20.1 10.3v.05q-5.55 6-7.85 13.25-.2.7-.4 1.2L2.4 14h-.05l-1.1-.25q-.4-.1-.75.1-.4.2-.45.65-.1.4.1.75t.65.45l42.4 11.25q-.6 2.6-.7 5.2v.05q-.85 12.5 6.75 20.7 7.55 8.25 19.1 7.35 11.4-.85 20.1-10.25 5.7-6.3 8.05-13.85 2.3 7.55 8 13.85 8.7 9.4 20.1 10.25 11.55.9 19.1-7.35 7.6-8.2 6.75-20.7v-.05q-.1-2.6-.7-5.2l42.4-11.25q.45-.1.65-.45t.1-.75m-53.35-2.7q8.15 8.8 8.9 20.5v.05q.8 11.55-6.2 19.2-6.9 7.5-17.5 6.7-10.65-.85-18.8-9.6h.05q-5.2-5.65-7.4-12.5-1.7-6.3-1.2-12.6v-.15h.05q.05-7.6 5.6-14.3l.05-.05.2-.2h-.05q7-7.55 17.5-6.75 10.75.85 18.8 9.7m-49.9-2.95l.2.2.05.05q5.55 6.7 5.6 14.3h.05v.15q.5 6.3-1.2 12.6-2.2 6.85-7.4 12.5H87q-8.15 8.75-18.8 9.6-10.6.8-17.5-6.7-7-7.65-6.2-19.2v-.05q.75-11.7 8.9-20.5 8.05-8.85 18.8-9.7 10.5-.8 17.5 6.75h-.05z" id="AccGla001__Symbol_3_0_Layer0_0_FILL"/></defs><g id="AccGla001__col2n" transform="translate(191 167.6)"><use xmlns:xlink="http://www.w3.org/1999/xlink" xlink:href="#AccGla001__Symbol_4_0_Layer0_0_FILL" id="AccGla001__col2n_FL"/></g><use xmlns:xlink="http://www.w3.org/1999/xlink" xlink:href="#AccGla001__Symbol_2_0_Layer0_0_FILL" transform="translate(139.3 136.2)" id="AccGla001__col2l"/><g id="AccGla001__col1n" transform="translate(96.05 134.55)"><use xmlns:xlink="http://www.w3.org/1999/xlink" xlink:href="#AccGla001__Symbol_3_0_Layer0_0_FILL" id="AccGla001__col1n_FL"/></g></g></g><g transform=""><g transform=""><defs><path fill="#000000" d="M16.9 49.45q-3.2-1.05-15.2-4.6l-1.6 6.5q-.3-.15.4 1.35t2.65 2.05L24 60.55q1.4.35 2.4-.45.95-.8 1.35-1.7-5.55-1.7-4.9-7.6-4.2-1.25-5.95-1.35m24-37q.55-1.5.55-3.85 0-2.4-3.35-3.5Q28.85 2.45 18.25.15q-1.75-.5-3.2.5-1.45.95-2.6 4.15l-.95 2.1 28.7 7.6.7-2.05z" id="ObjMor005__Symbol_118_0_Layer0_0_FILL"/><path fill="#333333" d="M18.65 55.3q.35-1.3-.3-2.45-.65-1.1-1.85-1.45l-.15-.05q-1.25-.3-2.4.3-1.15.7-1.5 2-.35 1.3.35 2.4.65 1.15 1.95 1.5 1.3.35 2.45-.3 1.1-.65 1.45-1.95M43.4 12.55q.6-2.3-.55-4.3-1.2-2.1-3.5-2.7L19.55.2q-2.3-.6-4.4.6Q13.1 2 12.5 4.3L.25 50.1q-.65 2.3.55 4.35Q2 56.5 4.3 57.1l19.8 5.35q2.3.6 4.4-.55 1-.65 1.7-1.5.1-.2.25-.4-.2-.05-.4-.15-.75-.15-1.4-.35-.45.5-1.05.85-1.45.85-3.05.45l-19.8-5.35q-1.6-.4-2.45-1.85-.85-1.45-.4-3.05l1-3.7q.4.1 1.15.3L23.7 52.4q.05-.5.2-1l2.35-14.2 8.7.35.8-.1q.55-.05 1.05-.05l6.6-24.85m-2.05-3.5q.85 1.45.4 3.05L41 15 14.65 7.9q-.75-.2-1.25-.3l.75-2.85q.45-1.6 1.9-2.45 1.45-.8 3.05-.4l19.8 5.35q1.6.4 2.45 1.8M31.8 8.7q-.2-.25-.55-.35L25.1 6.7q-.4-.1-.7 0-.3.15-.4.45-.05.3.15.55.15.3.55.4l6.15 1.65q.35.1.7-.05.35-.1.4-.4.1-.3-.15-.6z" id="ObjMor005__Symbol_99_0_Layer0_0_FILL"/><path fill="#000000" d="M1.3 38.2v-.4h21.75q.15-.35.3-.65.05-.2.15-.3.25-.65.5-1.05.65-1.15 1.2-2 .9-1.45 1.3-1.9 1.95-2 5.3-2.4l5.95-22.15L10.15 0 0 37.85l1.3.35z" id="ObjMor005__Symbol_23_0_Layer0_0_FILL"/><path fill="#FFF" d="M257.45 273.55q-.05 0-.1.05-.2.05-.6.3l-.65.35-.65-1.4q-.05 0-.25.2-.2.3-.2.4-.05.05 0 .1-.2.2-.4.5-.1.15-.3.55v-.05q-.1-1.35-.15-2 0-.35-.3-.3l-.55.25q-.65.4-.9.6l-.15.1q0 .1.1.15.15-.1.8-.5.45-.3.75-.4.05.4.1 1.2.1.75.3 1.25.1-.1.2-.3.15-.2.2-.35 0-.1.2-.35l.25-.25V273.5q0-.1.1-.15.05-.15.15-.15.1.2.25.9.25.6.35.65.1 0 .1-.05v-.05q.25-.3.65-.55.25-.15.55-.3.1-.05.25-.05 0-.05-.05-.1l-.05-.1z" id="ObjMor005__Layer4_3_MEMBER_0_FILL"/><g id="ObjMor005__Layer4_0_FILL"><path fill="#FFF" d="M251.5 303.65l-3.25-.9-.9 3.3 3.25.9.9-3.3m-3.65 2.1l.65-2.55 2.5.7-.65 2.55-2.5-.7m10.45-36.1l.85-3.2-4.75-1.25-.85 3.2 4.75 1.25z"/><path fill="#0CF" d="M263.65 278.75l4.75 1.3 1.25-4.75-4.75-1.3-1.25 4.75m-15.6 10.9l4.75 1.25 1.3-4.7-4.75-1.25-1.3 4.7m9.7-17.55l-4.75-1.3-.6 2.3-.15.1q0 .1.1.15l-.6 2.2 4.75 1.3.8-3.05q.1-.05.25-.05 0-.05-.05-.1l-.05-.1q-.05 0-.1.05l.4-1.5m6.7-.8l1.25-4.75-4.8-1.25-1.25 4.75 2.6.65q-2.1-1-2-1.3.1-.4.4-.25.7.4.75.45.05 0 .15.1.2.1.25.1.15.05.35.1.35.05.85.05h.1q.306 0 .7.05.2.05.25.25v.15q-.05.15-.8.25-.6.15-.85.1l2.05.55m-1-3.4q.2.25.1.55-.05.3-.4.45-.25.15-.55.1-.3-.1-.45-.4-.1-.25-.05-.55.1-.3.35-.45.25-.15.55-.05.3.05.45.35z"/><path fill="#9D9D9D" d="M263 281.05l-1.25 4.75 4.75 1.3 1.25-4.75-4.75-1.3z"/><path fill="#C4C4C4" d="M260.35 295.75q.05-.2.15-.3l-20.55-5.5-1.8 6.75 19.8 5.3q.05-.3.3-.9.25-.85.85-2.35.5-1.25.9-2.2.15-.45.35-.8z"/><path fill="#666" d="M249.95 277.55l-4.75-1.25-1.25 4.75 4.75 1.25 1.25-4.75m-2.6-.1q.15-.3.2-.1.05.15 0 .3l-.25 1.25q0 .05-.1.1l.05.05q.1.1.05.3-.05.1-.15.2-.15.1-.3.05-.2-.05-.25-.2-.05-.1 0-.15.05-.25.2-.3-.2-.2-.45-.4-.55-.5-.5-.7.1-.3.35.05.15.15.35.4.05 0 .4.4.1 0 .1.05.15-.65.15-.75.1-.4.15-.55m7.25 6.45l.8-3q0-.05.05-.05l.05-.2h-.05l.4-1.5-4.75-1.3-1.25 4.75 4.75 1.3m5.2-7.65v-.05q.05-.05.05-.1-.25-.05-.3-.05-.05 0-.1.05v.05q-.05.2-.15.35-.1.2-.1.25-.05.15.05.45 0 .25.05.35v.1q.05-.05.1-.05l.35-1.3.05-.05z"/><path d="M247.55 277.35q-.05-.2-.2.1-.05.15-.15.55 0 .1-.15.75 0-.05-.1-.05-.35-.4-.4-.4-.2-.25-.35-.4-.25-.35-.35-.05-.05.2.5.7.25.2.45.4-.15.05-.2.3-.05.05 0 .15.05.15.25.2.15.05.3-.05.1-.1.15-.2.05-.2-.05-.3l-.05-.05q.1-.05.1-.1l.25-1.25q.05-.15 0-.3z"/><path fill="#C6F" d="M248.1 284.6l-4.75-1.25-1.3 4.7 4.75 1.25 1.3-4.7z"/><path fill="#FFD680" d="M256.8 280.9l-.9 3.35 4.75 1.25.9-3.35-4.75-1.25z"/><path fill="#9F6A1C" d="M257.15 279.5l-.35 1.4 4.75 1.25.35-1.4-4.75-1.25m-5.3-9l-4.75-1.25-1.25 4.75 4.75 1.25 1.25-4.75m-3.9-.25l2.8.75-.65 2.5-2.8-.75.65-2.5z"/><path fill="#FF0" d="M259.45 276.15q-.15-.1-.3-.3l-.4 1.6.55.15v-.05q-.05-.1-.05-.35-.1-.3-.05-.45 0-.05.1-.25.1-.15.15-.35m1.1-3.3l-.55-.15-.3 1.15-.15.55-.15.5q.25-.05.45-.05.05 0 .15.05l.1-.35.15-.55.3-1.15z"/><path fill="#F90" d="M259.55 274.4l.15-.55-.95-.25-.15.55.95.25m3.65.4q-.05 0-.15.05.05.05.15.2-.05.1-.1.25v.05l.25.05.15-.55-.3-.05m-2.4-.55h.05l-.05-.05v-.05l-.55-.15-.15.55.55.15v-.25q.05-.15.15-.2z"/><path fill="#CCC" d="M260.65 274.7l-.55-.15-.1.35q.5.2.3.9-.05.2-.15.3-.15.15-.35.1v.05l-.05.05-.35 1.3 3.15.85.8-3.05-.25-.05q-.1.35-.25.5-.4.5-1.15.3-.75-.2-.95-.95-.1-.3-.1-.5m-1.6.55q.05-.2.3-.3 0-.05.05-.05l.15-.5-.95-.25-.8 3.05.95.25.4-1.6q0-.1-.05-.2-.1-.25-.05-.4m0-2.8l-.3 1.15.95.25.3-1.15-.95-.25m1.8 1.2q.1-.3.4-.2.3.1.2.4l.35.05.05-.05q.1-.35.35-.2.3.1.25.4l.25.05h.05q.1-.35.4-.25.3.1.25.4-.05.1-.15.15v.25q-.05.1-.05.15l.3.05.3-1.15-3.25-.85-.3 1.15.55.15q-.05-.1 0-.2v-.05q.05-.2.05-.25m5.95-6.8l-1.25 4.75 4.75 1.3 1.25-4.75-4.75-1.3z"/><path fill="red" d="M259.35 274.95q-.25.1-.3.3-.05.15.05.4.05.1.05.2.15.2.3.3v-.05q.05-.05.1-.05t.3.05q0 .05-.05.1.2.05.35-.1.1-.1.15-.3.2-.7-.3-.9-.1-.05-.15-.05-.2 0-.45.05-.05 0-.05.05m1.9-1.5q-.3-.1-.4.2 0 .05-.05.25v.05q-.05.1 0 .2v.05l.05.05q.05-.05.15 0 .05-.05.1-.05.3.05.9.2.5.15.8.3h.1q.1.05.15.15.1-.05.15-.05 0-.05.05-.15v-.25q.1-.05.15-.15.05-.3-.25-.4-.3-.1-.4.25h-.05l-.25-.05q.05-.3-.25-.4-.25-.15-.35.2l-.05.05-.35-.05q.1-.3-.2-.4m-6.45-9.8l-.4 1.55 4.75 1.25.4-1.55-4.75-1.25z"/><path fill="#03F" d="M260.85 274.25h-.05q-.1.05-.15.2v.25q0 .2.1.5.2.75.95.95.75.2 1.15-.3.15-.15.25-.5v-.05q.05-.15.1-.25-.1-.15-.15-.2-.05-.1-.15-.15h-.1q-.3-.15-.8-.3-.6-.15-.9-.2-.05 0-.1.05-.1-.05-.15 0z"/><path fill="#8C9882" d="M250.75 271l-2.8-.75-.65 2.5 2.8.75.65-2.5z"/><path fill="#0C0" d="M247.8 266.85l4.75 1.25 1.25-4.75-4.75-1.25-1.25 4.75z"/><path fill="#060" d="M263.25 270.65q.75-.1.8-.25v-.15q-.05-.2-.25-.25-.394-.05-.7-.05h-.1q-.5 0-.85-.05-.2-.05-.35-.1-.05 0-.25-.1-.1-.1-.15-.1-.05-.05-.75-.45-.3-.15-.4.25-.1.3 2 1.3l.05.05h.1q.25.05.85-.1z"/><path fill="#660" d="M263.55 268.45q.1-.3-.1-.55-.15-.3-.45-.35-.3-.1-.55.05-.25.15-.35.45-.05.3.05.55.15.3.45.4.3.05.55-.1.35-.15.4-.45z"/></g><g id="ObjMor005__Layer4_1_FILL"><path fill="#0C0" d="M241.15 291.5l-1.25 4.7 4.75 1.25 1.25-4.7-4.75-1.25z"/><path fill="#09F" d="M257.95 296l-4.75-1.3-1.25 4.7 4.75 1.3 1.25-4.7m-6.05-1.65l-4.75-1.25-1.25 4.7 4.75 1.25 1.25-4.7z"/><path fill="#F90" d="M260 296.55l-.75-.2-1.25 4.7.25.05q.25-.85.85-2.35.5-1.25.9-2.2z"/></g><g id="ObjMor005__Layer4_2_FILL"><path fill="red" d="M254.3 297.35l.6.8q1.2-.6 2.1-1.7-1.6.15-2.7.9z"/><path fill="#FFF" d="M254.3 297.35q-.155.116-.3.25-.606.534-1.05 1.3.545-.104 1.05-.3.467-.186.9-.45l-.6-.8M244 295q-.25-.1-.45.2-.15.1-.25.3-.4-.35-.5-.5-.1-.25-.25-.5-.15-.2-.5-.65-.3-.4-.3-.45.05-.1.3-.35.3-.25.35-.35.05-.3-.1-.4-.15-.1-.45-.05-.7.25-.9.95-.2.65.45 1.85.65 1.2 1.6 1.45.25.05.75-.3.4-.3.45-.5.05-.2.05-.35-.05-.3-.25-.35m6.85.5l-3.35-.9-.55 2.15 3.35.9.55-2.15z"/></g><g id="ObjMor005__Layer4_3_FILL"><path fill="#CCC" d="M264.4 286.15l.1-.2q.05-.3-.25-.4-.3-.15-.4.2l-.05.25q.1.15.25.2.2.05.35-.05m-1.8-1.9l.05.2q0 .05.05.1-.25.2-.35.5-.2 0-.25.2v.25q.05.05.05.1.05.15 0 .3l1 .3q0-.25.05-.45.1-.4.45-.6.35-.25.75-.15.4.15.65.5.2.4.1.8-.05.2-.2.35l.9.25q.15-.15.2-.4.15.05.3-.1.1-.1.1-.2.1-.3-.2-.35l-.05-.05q0-.35-.2-.7.15 0 .25-.1t.1-.2q.1-.3-.2-.4-.3-.05-.45.15-.15-.2-.3-.35l.1-.2q.05-.3-.25-.35-.3-.15-.4.2v.1q-.1 0-.15-.05-.25-.05-.45-.1 0-.2-.25-.3-.3-.1-.4.3-.05.05 0 .15-.25.05-.45.15 0-.05-.1-.1-.35-.1-.45.25z"/><path fill="#FF0" d="M265.8 275.7q-.55.35-.75.95-.15.6.2 1.1.3.55.9.7.6.15 1.15-.15.5-.3.65-.9.2-.6-.1-1.15-.35-.55-.95-.7-.6-.15-1.1.15m-1.4-6.9q.15-.7-.2-1.3-.4-.65-1.1-.85-.7-.15-1.3.2-.65.3-.8 1-.2.65.2 1.25.3.55.95.8.35.05.85.05h.1q.207-.005.5-.2.6-.3.8-.95m-.95-.9q.2.25.1.55-.05.3-.4.45-.25.15-.55.1-.3-.1-.45-.4-.1-.25-.05-.55.1-.3.35-.45.25-.15.55-.05.3.05.45.35z"/><path fill="#FFF" d="M247.05 286.8q.25-.8-.15-1.5-.35-.75-1.1-.95-.75-.2-1.45.3-.65.4-.9 1.2-.2.8.15 1.5.4.7 1.15.9.75.2 1.4-.25.7-.4.9-1.2m-.85-1.65q.1.1.15.25.3.55.15 1.2-.2.6-.7.9-.45.3-.95.15-.4-.1-.7-.45 0-.05-.1-.2-.25-.45-.05-1.05.15-.65.6-1.05.55-.3 1.05-.15.35.1.55.4m-.2.8q.1-.15.1-.25 0-.3-.25-.3-.35 0-.7.05-.5.1-.5.25-.05.05.05.05-.05.1-.05.3-.05.2-.1.25-.05-.05-.05-.1-.05 0-.15.05-.05.05-.05.1v.15q.1.1.3.15.15.05.2-.2.05-.3.1-.3v-.3q.3 0 .5-.05.15 0 .4-.1v.05l-.15.45q-.05.1-.1.35-.05-.05-.05-.1-.05-.1-.15-.1-.1-.05-.15.1l.05.2q.05.1.25.15.2.05.5-.85m6.8.95q-.35-.75-1.1-.95-.75-.2-1.45.25-.65.4-.9 1.2-.2.8.15 1.5.4.75 1.15.95.75.2 1.4-.25.7-.4.9-1.2.25-.8-.15-1.5m-.7-.2q.15.15.2.25.25.55.1 1.2-.2.6-.65.9-.5.3-1 .2-.4-.1-.7-.45 0-.05-.1-.2-.25-.5-.05-1.1.15-.65.6-1 .55-.3 1.05-.15.35.1.55.35m-1.4.4q-.05-.05-.1-.05-.45-.05-.5.25-.05.1.15.3l.05.05q-.05.1-.15.2-.15.2-.15.3-.05.15.1.15.1.05.35-.25.05-.1.15-.2.1 0 .3.1l.4.1q-.05.1 0 .2.05.5.25.55.15.05.2-.1-.1-.3-.05-.5.35.1.4-.15.05-.15-.05-.25-.05-.05-.35-.3l-.15-.05q0-.3-.15-.45-.1-.6-.4-.25-.15.2-.3.35m.2.15q.25-.2.25-.25.05.15.1.45-.05 0-.05-.05-.2-.15-.3-.15m-3.45-10.1q-.85-.2-1.6.2-.7.45-.95 1.3-.2.85.15 1.55.45.8 1.3 1 .85.25 1.6-.2.8-.4 1-1.25.25-.85-.2-1.6-.45-.75-1.3-1m.1.2q.05.15 0 .3l-.25 1.25q0 .05-.1.1l.05.05q.1.1.05.3-.05.1-.15.2-.15.1-.3.05-.2-.05-.25-.2-.05-.1 0-.15.05-.25.2-.3-.2-.2-.45-.4-.55-.5-.5-.7.1-.3.35.05.15.15.35.4.05 0 .4.4.1 0 .1.05.15-.65.15-.75.1-.4.15-.55.15-.3.2-.1m5.1-11.55q.1-.4-.45-.85-.45-.4-1.2-.65-.85-.2-1.5-.1-.6.15-.7.55-.1.4.35.8l.05.05q-.1.15-.1.2-.05.15-.15.3-.05.15-.1.25l-.05.1q.05.05.15.05.05.05.75-.25.15-.1.35-.15.2.05.45.1.75.25 1.35.1.7-.1.8-.5z"/><path fill="#9B8886" d="M251.05 280.6l-.45 1.6 1.6.4.45-1.6-1.6-.4m.05-.3l1.6.4.45-1.65-1.6-.4-.45 1.65m3.95-.75l-1.65-.4-.45 1.65 1.65.4.45-1.65z"/><path fill="#F90" d="M254.1 283.1l.45-1.6-1.65-.4-.45 1.6 1.65.4z"/><path fill="#FFD680" d="M251.3 270.75l-3.8-1.05-1.05 4.05 3.8 1.05 1.05-4.05m-3.35-.5l2.8.75-.65 2.5-2.8-.75.65-2.5m1.65 4q-.2-.05-.25-.25v-.15q.1-.3.4-.15.25.05.2.3 0 .1-.15.2-.05.1-.2.05m-2.45-.8l.05-.15q.1-.3.35-.2.25.1.2.35 0 .1-.1.15-.1.1-.25.05t-.25-.2z"/><path fill="#666" d="M267.15 270.6q.3.55.9.7.6.15 1.15-.15.5-.3.7-.9.15-.6-.15-1.15-.35-.55-.95-.7-.6-.15-1.1.15-.55.35-.7.95-.2.6.15 1.1m1 .1q-.35-.1-.5-.45-.2-.4-.1-.8.15-.4.45-.6.35-.25.7-.15t.5.45q.2.35.05.75-.1.4-.4.65-.35.25-.7.15z"/><path fill="#39F" d="M267.65 270.25q.15.35.5.45.35.1.7-.15.3-.25.4-.65.15-.4-.05-.75-.15-.35-.5-.45-.35-.1-.7.15-.3.2-.45.6-.1.4.1.8z"/></g></defs><use xmlns:xlink="http://www.w3.org/1999/xlink" xlink:href="#ObjMor005__Symbol_118_0_Layer0_0_FILL" transform="translate(234.75 251.65)" id="ObjMor005__col1n"/><use xmlns:xlink="http://www.w3.org/1999/xlink" xlink:href="#ObjMor005__Symbol_99_0_Layer0_0_FILL" transform="translate(233.85 250.55)" id="ObjMor005__col1l"/><use xmlns:xlink="http://www.w3.org/1999/xlink" xlink:href="#ObjMor005__Symbol_23_0_Layer0_0_FILL" transform="translate(237 258.6)" id="ObjMor005__col2n"/><use xmlns:xlink="http://www.w3.org/1999/xlink" xlink:href="#ObjMor005__Layer4_0_FILL"/><use xmlns:xlink="http://www.w3.org/1999/xlink" xlink:href="#ObjMor005__Layer4_1_FILL"/><use xmlns:xlink="http://www.w3.org/1999/xlink" xlink:href="#ObjMor005__Layer4_2_FILL"/><use xmlns:xlink="http://www.w3.org/1999/xlink" xlink:href="#ObjMor005__Layer4_3_FILL"/><use xmlns:xlink="http://www.w3.org/1999/xlink" xlink:href="#ObjMor005__Layer4_3_MEMBER_0_FILL"/></g></g><g transform=""><g transform=""><defs><path fill="#000000" d="M89.7 60.3l.65-1.55L83.1 0 .85 4.25 0 4.8l9.35 70.85v3.1l44.95 17.8 80.5-19.95 2.6-1.95v-.9L89.7 60.3z" id="ObjMor003__Symbol_116_0_Layer0_0_FILL"/><path fill="#333333" d="M44.2 75.9l-.1-.05-4.25.9 3.15 1.1 4.05-.9-2.85-1.05m-.2-.65l.1.05 1.9-.45-2.5-.95-4.5.95 2.55.95 1.85-.35q.1-.1.6-.2m1.65 2.65l-.05-.05-4.05.9 2.95 1.15 4-.9-2.85-1.1m.9-2.55l.4-.1-1.9.4L48 76.8l4.4-1-2.85-1.1-3 .65M51 76.8q-.1-.05-.1-.1l-2.5.6-.1.05q-.1.05-.25 0L48 77.3l-1.45.35 2.85 1.15 4.4-.95L51 76.8m8.2-.1l-2.95-1.15-4.4.95 2.9 1.15 4.45-.95m-5.9-2.8q-.55.15-.95.2l-1.8.4 2.65 1q.1.05.15.1l5.25-1.15-2.85-1.05-2.45.5m-1-2.35l2.25-.45h-.05l3.65-.7-2.05-.9-2.1.45q-.45.05-1.75.35l-2.25.45 2.3.8m1.05-3.2h-.1l-2.9.6 1.95.8 3.05-.65q.45-.1.8-.15l2.65-.55-1.85-.85-3.6.8m1.9 3.2l-2.25.4q-.35.1-.75.2L50 72.6l2.55.9 3.9-.75h.15l.95-.3-2.3-.9M57 67l3.2-.6-1.95-.85L51.4 67l1.9.75 2-.4q.45-.05 1.7-.35m-7.95 5.8l-4.55.95 2.45.95 1.95-.4q-.05 0-.05-.05l2.7-.5-2.5-.95m-2.45-1.4q-.4.1-.75.2l-1.85.35 2.15.9 2.2-.45q.35-.1.7-.15l2.2-.45-2.3-.85-2.35.45m2.15-2.7q.3-.1.65-.2l2.95-.55-1.9-.8-6.6 1.35 2.1.75 2.8-.55m-.5 1.85q.15-.1.65-.2l.15.05 2.3-.45-1.95-.85-2.75.55v.05l-2.85.55 2.1.75 2.35-.45m31.8 1.5L77.4 71l-.05-.05-20.1 4.4 2.9 1.1 19.9-4.4m-9.1-1.8l2.45 1.05 5.5-1.25-2.4-1-5.55 1.2m3.2-2.65v.05l-2.3.45 2.25.9 4.25-.85-2.25-.9-1.95.35m3.65-1.3l-1.2-.45q-.5-.2-.85-.35l-4.35.9 2.05.8 4.35-.9m.55-1.9l-2-.8-5.05 1.05 1.9.8 2.15-.45h-.05q.9-.15 3.05-.6m-2-2.3l-.3-.1-5.4 1.05 1.9.75 5.4-1.1-1.35-.55q-.1 0-.15-.05h-.1M61.1 66.15L66.65 65l-1.9-.75-5.55 1.15 1.9.75m3.65 4.8l-2.2-.95-2.8.6q-.35.05-.75.15l-2.8.6 2.3.95 1.8-.4-.15.05 4.6-1m-.05 2.2l-2.55-1.1-5.4 1.15 2.45.9q.25.1.4.15l5.1-1.1m-1.55-1.25l2.45 1 6.85-1.45-2.45-1-6.85 1.45m.35-2.05l2.2.95 3.6-.8q.3-.05.75-.1l3.05-.65-2.25-.9-3.25.6q-.35.1-.75.15l-3.35.75m-1.6-.25v-.05l4.05-.8-2.05-.8-3.45.65v.05l-3.4.7 2 .85 2.85-.6m-.1-3q-.35.05-.75.15l-3.15.65 1.85.8 7.15-1.45-2-.8-3.1.6v.05m5.45-1.9q.1 0 .15.15l.05.05 4.15-.85-1.95-.8-3.9.8 1.5.65m3.2 1.85l-1.9.45q-.3 0-.75.1l-2.95.6 2.05.85 5.55-1.1-2-.9m-4.6-.8l2.05.75 4.35-.85-1.9-.8-4.5.9m-40.7 9.5l3-.6-2.05-.8-3.05.6 2.1.8m12 4.45l3.1 1.1 3.25-.65L40.75 79q-.1 0-.15-.05l-3.45.75m.85-4.6l-4.55.9 2.65.95 4.45-.9L38 75.1m.8 1.85l-5.75 1.25 3.15 1.1 5.8-1.2-3.2-1.15m-3.75.25l-2.6-.95-3.05.55 2.7 1 2.95-.6m-.9-1.85l-2.4-.9-5.65 1.15 2.35.9 3.3-.7q.75-.1 1.05-.2l1.35-.25m3.8-5.65l2.05.75 4.9-1-2.1-.75-4.85 1m2.4 3l-1.9.4 2.2.85L45.2 73l-2.2-.85-1.9.4q-.3.05-.75.15m-2-1.3l2.05.75 1.85-.4.7-.2.05.05 1.9-.35-2.1-.8-4.45.95m-2.8 2.3v.05l-2.8.5 2.4.85 2.15-.4.7-.2h.05l1.65-.35-2.25-.85-1.9.4m-3.15-2.85l2.05.75 1.15-.2h-.2l3.65-.7-2.05-.8-4.6.95m2.75 1.1V72l-2.45.5 2.05.8 1.95-.45q.15 0 .65-.15l.15.05 1.9-.4-2-.8-2.25.4M31.6 73.9h.05q.05-.05.1-.05l2-.4-2-.75-4.65.95 2.05.75 2.45-.5m-9.55.2l5.55-1.15-2.1-.75-5.55 1.15 2.1.75m4.5-2.15l2.1.8v.05l4.8-1-2.05-.8-4.85.95m-17.2-.55v3.1L54.3 92.3l2.3-1.9h.05v-1.3h-.05L9.35 71.4M.85 0L0 .55 9.35 71.4h.15l.7-1.65L.85 0m93.4 67.45q-.05-.05-.1-.15l-4.5 1 2.8 1.05 4.3-.95-2.5-.95m5.4-1.3q-.05 0-.05-.05l-4.55 1 2.65 1.05h.05l4.65-1.05-2.75-.95m-3.1-1.25q-.05.05-.15.05l-1.85.35 2.3.85 4.2-.9-2.3-.8-2.15.4-.05.05m1.6-2.2q-.05 0-.1-.05l-4.05.9 2.45.8 4.1-.85-2.4-.8m-13.9 6.2l-2.3-.95-2.65.55h-.05l-1.8.4 2.4.95 4.4-.95m4.55-.35l-.1-.1-4.95 1.1 2.75 1.1 4.95-1.1-2.65-1m-7.8 3.3l4.55-1-2.45-.95-.1-.05q-.1 0-.15-.1L78.3 70.8l2.7 1.05m2.8-6.8l-2-.8-5.1 1.05h.1l2 .8 5-1.05m.6 1.85l-2.25-.9-4.2.85H78l-.95.15 2.25.95 5.1-1.05m-1.05-3.5l-2.05-.8-3.95.85 2 .75 4-.8m6.9 4.2l-2.3-.95-2.4.55h-.05q-.1.05-.15.05l-2.45.5 2.35.9 5-1.05m-.95-3.65l-2.1-.8-4.45.9 2 .8 4.55-.9m-.9.7l2.35.85 4.6-.95-2.4-.8-1 .2.1-.05-3.65.75m2.45 1.4q-.1.05-.2.05l-1.7.4 2.2.9 4.7-1-2.3-.9-2.65.55h-.05m-3.6.2q.35-.05.75-.15l1.7-.35-2.35-.85-2.45.5-.05.05h-.1l-1.6.3 2.2.9 1.9-.4m2.9-3.7h-.05q-.1.05-.2.05l-1.7.35 2.05.75 4.15-.8-2.15-.8-2.1.45M86.7 61.5l-1.75.35v.05l-2.65.5 2.1.75 2.1-.4v-.05l2.35-.45-2.15-.75m3.9-2.45l-3.5.7 2.05.7 3.6-.75-2.15-.65m-8.35 1.65l1.95.75 3.85-.8-2-.7-3.8.75m.95.95l-1.95-.7-4.2.8 1.85.8 4.3-.9m16.55-1.05l-1.5.3 2.2.7 1.7-.35-2.35-.65h-.05m-.35 1.25l-2.3-.75-3.8.85 2.1.7 4-.8m-5.7-.6l-2.2-.7-1.6.3q-.3.05-.8.2l-1.35.25 2.2.75 1.15-.25.4-.1 2.2-.45m.15-1.75l1.2-.25-2.2-.65-1.2.2 2.2.7m.8 1.55q.05 0 .1.05l3.9-.85-2.4-.65-3.65.7 2.05.75m15.95 2.65l-4.55 1 2.9.95 4.75-1.05-3.1-.9m-8.55 1.3l4.3-.95-2.35-.75-4.2.9 2.25.8m-.65-1.85q.05.05.1.15l1.75-.35q.4-.1.75-.2h.05l1.85-.4-2.6-.75-4.2.85 2.3.7m3.7 1.85q-.05 0-.1-.05l-4.4.95 2.85 1 4.45-1-2.8-.9m4.4-1.6l-2.45-.7-1.95.4 2.25.75h.05l2.1-.45z" id="ObjMor003__Symbol_97_0_Layer0_0_FILL"/><path fill="#252525" d="M.7 15.25L0 16.9l6.95-1.35v-1.5L.7 15.25m79.5-13.7L80.85 0 74.2 1.25v1.4l6-1.1M54.75 6.4V4.95l-28.35 5.4v1.5L54.75 6.4m73.15 9.5V15L47.15 34.6v1.3l80.75-20z" id="ObjMor003__Symbol_64_0_Layer0_0_FILL"/><path fill="#006AC9" d="M78.25 0L0 4.55 7.5 59.7q41-3.85 76.7-12.15L78.25 0m-6.4 3.9l.3 2.15L11.6 11.2l-.35-2.45 60.6-4.85z" id="ObjMor003__Symbol_22_0_Layer0_0_FILL"/><path fill="#00284D" d="M77 46.2l-.3-2.55L0 55.8l.45 3L77 46.2M64.65 2.15L64.35 0 3.75 4.85 4.1 7.3l60.55-5.15m4.5 3.95l-.3-2.15L8.2 8.85l.4 2.45h.05l60.5-5.2z" id="ObjMor003__Symbol_1_0_Layer0_0_FILL"/><path fill="#FFF" fill-opacity="0.502" d="M120.95 222.6l-.3-2.1-60.55 5.15 6.15 39.3 3.65-.55-5.25-34.75h-.05l-.4-2.45 56.75-4.6z" id="ObjMor003__Layer4_0_MEMBER_0_FILL"/><g id="ObjMor003__Layer4_0_FILL"><path fill="#FFF" d="M59.4 276.05q.1-.15.1-.55 0-1-.95-.95-1.05.05-1.05.95 0 .9 1.05.9.65 0 .85-.35m70.55-16.15l-4.8-35.45-60.5 5.2 5.25 34.75h.15l.65 4.55 59.25-9.05z"/><path fill="#43FFBB" d="M54.15 243.95q0 .15.1.4.15.3.6.3.05 0 .8-.15t1.95-.25q.7 0 .7-.65 0-.6-1-.7v-.25q0-.2-.1-.5-.15-.25-.35-.35-.25-.15-.5-.45-.15-.15-.6-.2-.45.05-.9.7-.35.6-.35.9 0 .3.15.5-.5.3-.5.7z"/><path d="M56.8 238.65q-.15-.1-.95-.45v-.05q.4-.3.4-.65 0-.85-1.05-.65-1.05.2-1.05 1.3 0 .55.4 1 .55.6 1.8.6.35 0 .55-.25.15-.25.15-.45 0-.25-.25-.4z"/><path fill="#020666" d="M54.25 230.45q-.4 0-.8.3-.35.25-.35.6 0 .3.15.45.15.3.6.35 0 .4.05.55.1.4.5.6-.65-.1-.95.25-.1.25-.1.45 0 .7 1 .7.9 0 1.35-.7.25-.45.25-.85 0-.25-.3-.65l-.3-.45q0-1.6-1.1-1.6z"/><path fill="#72009C" d="M52.9 225.85q-.95 0-.95 1.55 0 .55.1.8.35.65 1.65.65.9 0 1.15-.75.1-.25.1-.95 0-.5-.35-.85-.55-.45-1.7-.45z"/><path fill="#54CBFF" d="M52.9 220.35q-1.15-.05-1.15 1.1 0 .4.05.5.1.25.4.55h-.1q-1.05 0-1.05.7 0 .05.1.35.25.4.8.4 1.7 0 2.25-.45.3-.2.3-.8 0-.3-.1-.45-.05-.25-.55-.65.25-.15.25-.45 0-.3-.4-.6-.3-.15-.8-.2z"/></g></defs><use xmlns:xlink="http://www.w3.org/1999/xlink" xlink:href="#ObjMor003__Symbol_116_0_Layer0_0_FILL" transform="translate(45.2 212.6)" id="ObjMor003__col1n"/><use xmlns:xlink="http://www.w3.org/1999/xlink" xlink:href="#ObjMor003__Symbol_97_0_Layer0_0_FILL" transform="translate(45.2 216.85)" id="ObjMor003__col1l"/><use xmlns:xlink="http://www.w3.org/1999/xlink" xlink:href="#ObjMor003__Symbol_64_0_Layer0_0_FILL" transform="translate(54.7 271.35)" id="ObjMor003__col1d"/><use xmlns:xlink="http://www.w3.org/1999/xlink" xlink:href="#ObjMor003__Symbol_22_0_Layer0_0_FILL" transform="translate(48.5 214.45)" id="ObjMor003__col2n"/><use xmlns:xlink="http://www.w3.org/1999/xlink" xlink:href="#ObjMor003__Symbol_1_0_Layer0_0_FILL" transform="translate(56 218.35)" id="ObjMor003__col2s"/><use xmlns:xlink="http://www.w3.org/1999/xlink" xlink:href="#ObjMor003__Layer4_0_FILL"/><use xmlns:xlink="http://www.w3.org/1999/xlink" xlink:href="#ObjMor003__Layer4_0_MEMBER_0_FILL"/></g></g></svg>